<?xml version="1.0" encoding="UTF-8"?>
<svg width="203px" height="60px" viewBox="0 0 203 60" version="1.1" xmlns="http://www.w3.org/2000/svg" xmlns:xlink="http://www.w3.org/1999/xlink">
    <!-- Generator: Sketch 57 (83077) - https://sketch.com -->
    <title>Download_on_the_App_Store_Badge_VN_RGB_blk_100217@1x</title>
    <desc>Created with Sketch.</desc>
    <g id="Page-1" stroke="none" stroke-width="1" fill="none" fill-rule="evenodd">
        <g id="Banner-website" transform="translate(-40.000000, -637.000000)" fill-rule="nonzero">
            <g id="Group-4" transform="translate(40.000000, 588.000000)">
                <g id="Group-2" transform="translate(0.000000, 49.000000)">
                    <g id="Download_on_the_App_Store_Badge_VN_RGB_blk_100217">
                        <g id="Group">
                            <g id="Path">
                                <path d="M186.374163,0 L16.1349409,0 C15.5143975,0 14.9012999,0 14.282398,0.00319498962 C13.7643196,0.00619497987 13.2503702,0.0149099515 12.7273166,0.0222449277 C11.5910024,0.0340975946 10.4573604,0.122708991 9.33624228,0.287309066 C8.21669885,0.455492462 7.13222594,0.7725661 6.11950229,1.22780601 C5.10801722,1.68689708 4.1837944,2.28343887 3.38036242,2.99579026 C2.57271256,3.70613845 1.89947404,4.52720485 1.38653461,5.42741736 C0.872179502,6.32583812 0.515524007,7.28857876 0.328886315,8.28238808 C0.140474209,9.27494222 0.0390879408,10.2789424 0.0256373948,11.2853783 C0.00993343282,11.7452768 0.00827504029,12.2067053 0,12.6666638 L0,47.3379412 C0.00827504029,47.8036896 0.00993343282,48.2548882 0.0256373948,48.7207867 C0.0390920654,49.7271727 0.140478335,50.7311227 0.328886315,51.7236269 C0.515008644,52.7180172 0.871685227,53.6813105 1.38653461,54.5800676 C1.89924113,55.477369 2.57257433,56.2951114 3.38036242,57.0015097 C4.18074804,57.7170285 5.10556826,58.3139761 6.11950229,58.769554 C7.13221825,59.2260123 8.21657424,59.5449732 9.33624228,59.7157509 C10.457551,59.8790325 11.5910764,59.9676799 12.7273166,59.9809501 C13.2503702,59.99115 13.7643196,59.997 14.282398,59.997 C14.901283,60 15.5144314,60 16.1349409,60 L186.374163,60 C186.982353,60 187.600358,60 188.208549,59.997 C188.724173,59.997 189.252997,59.99115 189.768622,59.9809501 C190.902714,59.9683857 192.034105,59.8797326 193.153097,59.7157509 C194.276377,59.543771 195.36462,59.2248946 196.382224,58.769554 C197.395243,58.3137124 198.31921,57.716781 199.11891,57.0015097 C199.924614,56.2923448 200.599385,55.4752006 201.118457,54.5800676 C201.629444,53.6806567 201.982725,52.7174404 202.166122,51.7236269 C202.354831,50.7309865 202.459815,49.7272598 202.480201,48.7207867 C202.486801,48.2548882 202.486801,47.8036896 202.486801,47.3379412 C202.5,46.7929929 202.5,46.2510447 202.5,45.6972465 L202.5,14.3043435 C202.5,13.7550303 202.5,13.2101121 202.486801,12.6666638 C202.486801,12.2067053 202.486801,11.7452768 202.480201,11.2853183 C202.459819,10.2787953 202.354835,9.27501836 202.166122,8.28232808 C201.982214,7.28909371 201.628953,6.32642935 201.118457,5.42735736 C200.073881,3.62297734 198.417483,2.15422609 196.382224,1.22767101 C195.364617,0.773543556 194.276257,0.456554131 193.153097,0.287174067 C192.034299,0.121848779 190.90279,0.0332065394 189.768622,0.0220349284 C189.252997,0.0147149522 188.724173,0.00592498074 188.208549,0.00299999025 C187.600358,0 186.982353,0 186.374163,0 L186.374163,0 Z" fill="#A6A6A6"></path>
                                <path d="M14.3104049,58.4970198 C13.7949312,58.4970198 13.2919095,58.4912083 12.7804793,58.4810755 C11.7210102,58.4689172 10.6640174,58.3876824 9.61816956,58.2380372 C8.6429692,58.0901105 7.69826218,57.8149397 6.81520935,57.4216015 C5.94025364,57.0315223 5.14222369,56.5200395 4.45169099,55.9067474 C3.75116297,55.3006794 3.16794139,54.5977441 2.72513829,53.8257973 C2.27745587,53.0488335 1.96763299,52.2160221 1.80646222,51.3563735 C1.63241177,50.4326714 1.53824327,49.4986629 1.52476872,48.562402 C1.51404238,48.248136 1.5,47.2017751 1.5,47.2017751 L1.5,12.779211 C1.5,12.779211 1.51495598,11.7489284 1.52485332,11.4462407 C1.53775509,10.5114628 1.631376,9.57890376 1.80490571,8.65663521 C1.96637398,7.79463177 2.27643671,6.95941873 2.72436003,6.17990981 C3.16553573,5.40849627 3.74551938,4.70503599 4.44182749,4.09679912 C5.13735296,3.48278315 5.93793564,2.9686666 6.81438034,2.573198 C7.69540366,2.18112348 8.6383253,1.90789384 9.61155441,1.76266313 C10.660837,1.61151469 11.7214993,1.52979653 12.7846413,1.51819434 L14.3112339,1.5 L188.180493,1.5 L189.725324,1.5189245 C190.778795,1.52995018 191.829822,1.61093931 192.869463,1.76120281 C193.852544,1.90825523 194.805293,2.18339134 195.69638,2.57756405 C197.452216,3.37454786 198.880906,4.63545143 199.782204,6.1835457 C200.222978,6.95767335 200.528258,7.78607354 200.687684,8.64063134 C200.86328,9.57046713 200.961556,10.5103546 200.981728,11.4527972 C200.986634,11.8747987 200.986634,12.3280926 200.986634,12.779211 C201,13.3380053 201,13.8698732 201,14.4061071 L201,45.5922984 C201,46.1336584 201,46.6619053 200.986634,47.1944735 C200.986634,47.6790599 200.986634,48.1229661 200.980036,48.5798363 C200.960301,49.5054615 200.863663,50.4285727 200.690898,51.3417704 C200.533031,52.2076201 200.224895,53.0469322 199.777298,53.8302677 C199.331365,54.5938357 198.751492,55.2906821 198.059052,55.8951244 C197.367898,56.5117124 196.56846,57.0261878 195.691473,57.4187703 C194.802855,57.8151323 193.851509,58.0913206 192.869463,58.2380372 C191.823694,58.388481 190.7666,58.469721 189.707052,58.4810755 C189.211508,58.4912083 188.692617,58.4970198 188.188783,58.4970198 L186.354815,58.5 L14.3104049,58.4970198 Z" fill="#000000"></path>
                            </g>
                            <g id="_Group_" transform="translate(18.000000, 12.000000)" fill="#FFFFFF">
                                <g id="_Group_2">
                                    <g id="_Group_3">
                                        <path d="M23.65332,18.45102 C23.6861055,15.9063137 25.0201844,13.5557792 27.18816,12.22293 C25.8142689,10.2607692 23.5955881,9.06131753 21.20142,8.98641 C18.68256,8.72202 16.240635,10.493655 14.95707,10.493655 C13.648665,10.493655 11.672415,9.01266 9.54432,9.056445 C6.74430189,9.14690763 4.19720576,10.7002882 2.83494,13.14825 C-0.06606,18.17088 2.097825,25.552455 4.87674,29.61237 C6.26709,31.600395 7.89201,33.82107 10.018185,33.74232 C12.098775,33.656025 12.875835,32.4156 15.387285,32.4156 C17.875425,32.4156 18.60447,33.74232 20.773785,33.69225 C23.006355,33.65601 24.41298,31.69539 25.75455,29.68854 C26.7535142,28.2719996 27.5222155,26.7064139 28.03218,25.049775 C25.3805649,23.9282719 23.6564149,21.3300515 23.65332,18.45102 L23.65332,18.45102 Z" id="_Path_"></path>
                                        <path d="M19.555875,6.316335 C20.7731649,4.85502286 21.3728774,2.97675368 21.227655,1.080405 C19.3679067,1.27573573 17.6500203,2.16457451 16.416285,3.56982 C15.1980281,4.95628354 14.5808619,6.77014902 14.70072,8.611905 C16.5854052,8.63131015 18.3748741,7.78522983 19.555875,6.316335 L19.555875,6.316335 Z" id="_Path_2"></path>
                                    </g>
                                </g>
                                <g id="Group" transform="translate(43.500000, 13.500000)">
                                    <path d="M12.453405,15.209475 L5.353305,15.209475 L3.648225,20.24415 L0.640905,20.24415 L7.366005,1.61715 L10.490505,1.61715 L17.215605,20.24415 L14.157,20.24415 L12.453405,15.209475 Z M6.08865,12.88623 L11.71665,12.88623 L8.942235,4.715325 L8.864595,4.715325 L6.08865,12.88623 Z" id="Shape"></path>
                                    <path d="M31.739535,13.454595 C31.739535,17.674815 29.480745,20.38623 26.072055,20.38623 C24.3101329,20.4783969 22.6504986,19.555546 21.79911,18.01023 L21.73461,18.01023 L21.73461,24.7368 L18.94701,24.7368 L18.94701,6.66357 L21.6453,6.66357 L21.6453,8.92236 L21.69657,8.92236 C22.5857825,7.38673188 24.2472064,6.46427825 26.020785,6.521475 C29.4675,6.52149 31.739535,9.24609 31.739535,13.454595 Z M28.874295,13.454595 C28.874295,10.705095 27.45339,8.89746 25.285425,8.89746 C23.155545,8.89746 21.722925,10.743165 21.722925,13.454595 C21.722925,16.190925 23.155545,18.023445 25.285425,18.023445 C27.453405,18.023445 28.874295,16.22901 28.874295,13.454595 Z" id="Shape"></path>
                                    <path d="M46.686795,13.454595 C46.686795,17.674815 44.428005,20.38623 41.019315,20.38623 C39.2573929,20.4783969 37.5977586,19.555546 36.74637,18.01023 L36.68187,18.01023 L36.68187,24.7368 L33.89427,24.7368 L33.89427,6.66357 L36.5925,6.66357 L36.5925,8.92236 L36.64377,8.92236 C37.5329889,7.38673281 39.1944192,6.46428461 40.968,6.52149 C44.41482,6.52149 46.686795,9.24609 46.686795,13.454595 Z M43.82157,13.454595 C43.82157,10.705095 42.40065,8.89746 40.232685,8.89746 C38.102805,8.89746 36.670185,10.743165 36.670185,13.454595 C36.670185,16.190925 38.102805,18.023445 40.232685,18.023445 C42.400665,18.023445 43.82157,16.22901 43.82157,13.454595 L43.82157,13.454595 Z" id="Shape"></path>
                                    <path d="M56.565705,15.054195 C56.772255,16.90137 58.566705,18.114195 61.01883,18.114195 C63.368445,18.114195 65.05887,16.90131 65.05887,15.23577 C65.05887,13.789965 64.039335,12.92427 61.62528,12.33099 L59.211225,11.74944 C55.79082,10.92327 54.20292,9.323655 54.20292,6.72795 C54.20292,3.51408 57.003705,1.30656 60.980745,1.30656 C64.916745,1.30656 67.61502,3.51408 67.705845,6.72795 L64.891845,6.72795 C64.723395,4.86906 63.186765,3.747 60.94116,3.747 C58.695555,3.747 57.15894,4.88226 57.15894,6.5346 C57.15894,7.851495 58.14039,8.626395 60.54126,9.2196 L62.5935,9.72351 C66.415275,10.62732 68.003175,12.16251 68.003175,14.88708 C68.003175,18.37194 65.22729,20.55456 60.81225,20.55456 C56.681385,20.55456 53.89233,18.42321 53.71215,15.05406 L56.565705,15.054195 Z" id="Path"></path>
                                    <path d="M74.019315,3.4497 L74.019315,6.66357 L76.601835,6.66357 L76.601835,8.87109 L74.019315,8.87109 L74.019315,16.357905 C74.019315,17.52099 74.53641,18.062985 75.671655,18.062985 C75.9782422,18.0576389 76.2843332,18.036109 76.58865,17.998485 L76.58865,20.19282 C76.0782425,20.2881893 75.5594562,20.3313817 75.040305,20.32173 C72.290805,20.32173 71.21853,19.28901 71.21853,16.65522 L71.21853,8.87109 L69.24393,8.87109 L69.24393,6.66357 L71.2185,6.66357 L71.2185,3.4497 L74.019315,3.4497 Z" id="Path"></path>
                                    <path d="M78.0975,13.454595 C78.0975,9.18165 80.614095,6.49659 84.538425,6.49659 C88.475925,6.49659 90.980805,9.18159 90.980805,13.454595 C90.980805,17.73927 88.48911,20.4126 84.538425,20.4126 C80.589135,20.4126 78.0975,17.739255 78.0975,13.454595 Z M88.140465,13.454595 C88.140465,10.523445 86.7972,8.793465 84.53841,8.793465 C82.27962,8.793465 80.937825,10.53663 80.937825,13.454595 C80.937825,16.39746 82.27962,18.11427 84.53841,18.11427 C86.7972,18.11427 88.140465,16.39746 88.140465,13.454595 L88.140465,13.454595 Z" id="Shape"></path>
                                    <path d="M93.279075,6.66357 L95.93778,6.66357 L95.93778,8.97507 L96.00228,8.97507 C96.3730441,7.48705261 97.7364788,6.46294734 99.268875,6.52146 C99.5901211,6.52033835 99.9104808,6.55522612 100.223955,6.62547 L100.223955,9.23289 C99.8184014,9.10896498 99.3953394,9.05206694 98.971455,9.06444 C98.1519273,9.03119316 97.3588064,9.35780209 96.8003422,9.95850896 C96.241878,10.5592158 95.9738648,11.3740061 96.066675,12.18894 L96.066675,20.24412 L93.279075,20.24412 L93.279075,6.66357 Z" id="Path"></path>
                                    <path d="M113.07645,16.255365 C112.70145,18.72069 110.300565,20.412585 107.22879,20.412585 C103.278105,20.412585 100.825965,17.76561 100.825965,13.519035 C100.825965,9.259275 103.29129,6.496575 107.11161,6.496575 C110.86893,6.496575 113.23173,9.077625 113.23173,13.195305 L113.23173,14.150385 L103.639935,14.150385 L103.639935,14.318835 C103.550381,15.3298824 103.899497,16.3306792 104.59848,17.0666549 C105.297462,17.8026306 106.278941,18.2028499 107.29326,18.16551 C108.646023,18.2922594 109.921415,17.5154665 110.42949,16.25535 L113.07645,16.255365 Z M103.653094,12.202155 L110.44266,12.202155 C110.493248,11.2936462 110.162545,10.4052346 109.530225,9.75094732 C108.897905,9.09666002 108.021301,8.73582062 107.11161,8.755365 C106.194723,8.74989334 105.313636,9.11090194 104.664188,9.75814987 C104.01474,10.4053978 103.650744,11.2852544 103.653094,12.202155 L103.653094,12.202155 Z" id="Shape"></path>
                                </g>
                            </g>
                        </g>
                        <g id="_Group_4" transform="translate(63.000000, 9.000000)" fill="#FFFFFF">
                            <g id="Group">
                                <polygon id="Path" points="3.276885 13.046625 3.276885 5.36133 0.461385 5.36133 0.461385 4.0965 7.4766 4.0965 7.4766 5.36139 4.6671 5.36139 4.6671 13.0467"></polygon>
                                <path d="M7.905795,11.13648 C7.905795,9.920655 8.811075,9.219735 10.417995,9.12012 L12.24759,9.014655 L12.24759,8.43165 C12.24759,7.718265 11.775915,7.31544 10.864785,7.31544 C10.12065,7.31544 9.605025,7.588635 9.457065,8.066175 L8.16654,8.066175 C8.30277,6.906015 9.39408,6.16188 10.9263,6.16188 C12.619665,6.16188 13.574745,7.00488 13.574745,8.43165 L13.574745,13.04664 L12.29154,13.04664 L12.29154,12.097425 L12.186,12.097425 C11.7501729,12.7906145 10.9751305,13.1957448 10.15719,13.157925 C9.58380638,13.217545 9.0119594,13.031833 8.58301354,12.6466983 C8.15406769,12.2615635 7.90805627,11.7129505 7.905795,11.13648 L7.905795,11.13648 Z M12.24759,10.559325 L12.24759,9.994635 L10.598175,10.1001 C9.667995,10.16235 9.24612,10.47876 9.24612,11.074215 C9.24612,11.68212 9.77346,12.03588 10.49862,12.03588 C10.9278991,12.0793348 11.3564346,11.9467126 11.6861256,11.6683734 C12.0158166,11.3900342 12.2184324,10.9898116 12.24759,10.559325 L12.24759,10.559325 Z M9.965355,3.02271 C10.2486137,2.9257036 10.5463257,2.87765149 10.84572,2.880615 C11.73342,2.880615 12.309105,3.351615 12.309105,4.09644 C12.2569027,4.77735675 11.7836267,5.35256222 11.125515,5.53494 L10.615755,4.87794 C11.02005,4.747575 11.304255,4.480965 11.304255,4.213635 C11.304255,3.941175 11.03766,3.742635 10.65972,3.742635 C10.4216278,3.73609319 10.1848895,3.78054204 9.965385,3.873 L9.965355,3.02271 Z" id="Shape"></path>
                                <path d="M15.48783,4.29492 C15.466795,3.94164917 15.6634277,3.6112992 15.983989,3.46135515 C16.3045503,3.3114111 16.6841517,3.37222487 16.9418288,3.61480519 C17.199506,3.85738551 17.2830997,4.23262894 17.1527588,4.56164871 C17.0224179,4.89066848 16.7045264,5.10686395 16.35063,5.10717 C16.1272531,5.11856038 15.908898,5.0383244 15.7460427,4.88501054 C15.5831874,4.73169668 15.4899303,4.51857725 15.48783,4.29492 Z M15.68559,6.29223 L17.0142,6.29223 L17.0142,13.046625 L15.68559,13.046625 L15.68559,6.29223 Z" id="Shape"></path>
                                <polygon id="Path" points="26.11527 13.046625 24.68265 13.046625 22.24515 6.29223 23.67045 6.29223 25.352085 11.61987 25.45755 11.61987 27.131865 6.29223 28.546905 6.29223"></polygon>
                                <path d="M35.54007,11.222895 C35.1662806,12.4969642 33.9333434,13.3201546 32.613315,13.17699 C31.7126579,13.200766 30.8470762,12.8274447 30.2462309,12.1560779 C29.6453856,11.4847111 29.3700198,10.5831713 29.493195,9.69066 C29.3732961,8.79567071 29.6476323,7.8926906 30.2451313,7.21565543 C30.8426302,6.53862027 31.704498,6.15415013 32.60745,6.16185 C34.486845,6.16185 35.620635,7.44585 35.620635,9.56685 L35.620635,10.032 L30.8511,10.032 L30.8511,10.1067 C30.808893,10.6079102 30.9800711,11.1036716 31.3225362,11.472061 C31.6650013,11.8404505 32.1469768,12.0472859 32.64993,12.0417 C33.3020878,12.119992 33.9369188,11.7964996 34.256865,11.22285 L35.54007,11.222895 Z M35.06985,5.367915 L33.67971,5.367915 L32.65578,4.10229 L32.55765,4.10229 L31.53372,5.367915 L30.14505,5.367915 L31.880895,3.315 L33.33255,3.315 L35.06985,5.367915 Z M30.8511,9.04614 L34.262715,9.04614 C34.2966944,8.58774065 34.1355127,8.13630761 33.8188904,7.80308864 C33.5022681,7.46986967 33.0596512,7.28585434 32.600115,7.29639 C32.1343478,7.29053021 31.685954,7.47302009 31.35665,7.80246247 C31.027346,8.13190484 30.8450445,8.58037533 30.8511,9.04614 L30.8511,9.04614 Z M34.256865,3.14721 L32.874,1.1997 L34.26267,1.1997 L35.44767,3.14721 L34.256865,3.14721 Z" id="Shape"></path>
                                <path d="M42.879,4.610595 L42.879,6.322995 L44.342385,6.322995 L44.342385,7.445805 L42.879,7.445805 L42.879,10.91895 C42.879,11.62647 43.17051,11.93628 43.83408,11.93628 C44.0039634,11.9357363 44.1736762,11.9254645 44.342385,11.905515 L44.342385,13.01586 C44.1030089,13.0587566 43.8604621,13.0815412 43.617285,13.083975 C42.134865,13.083975 41.544525,12.562485 41.544525,11.260245 L41.544525,7.445745 L40.472265,7.445745 L40.472265,6.322935 L41.544525,6.322935 L41.544525,4.610595 L42.879,4.610595 Z" id="Path"></path>
                                <path d="M46.10232,6.29223 L47.385525,6.29223 L47.385525,7.327875 L47.48514,7.327875 C47.7798509,6.5903074 48.5163986,6.12678312 49.30887,6.180165 C49.508527,6.17748075 49.7078991,6.19614172 49.90359,6.23583 L49.90359,7.55133 C49.6589593,7.49905759 49.4096048,7.47206081 49.159455,7.470765 C48.7148734,7.43084034 48.2741048,7.58051719 47.9457681,7.88291058 C47.6174313,8.18530397 47.4320617,8.61229137 47.43534,9.05865 L47.43534,13.046685 L46.10232,13.046685 L46.10232,6.29223 Z" id="Path"></path>
                                <path d="M56.914335,11.222895 C56.5405456,12.4969642 55.3076084,13.3201546 53.98758,13.17699 C53.0869229,13.200766 52.2213412,12.8274447 51.6204959,12.1560779 C51.0196506,11.4847111 50.7442848,10.5831713 50.86746,9.69066 C50.7475611,8.79567071 51.0218973,7.8926906 51.6193963,7.21565543 C52.2168952,6.53862027 53.078763,6.15415013 53.981715,6.16185 C55.86111,6.16185 56.9949,7.44585 56.9949,9.56685 L56.9949,10.032 L52.225365,10.032 L52.225365,10.1067 C52.183158,10.6079102 52.3543361,11.1036716 52.6968012,11.472061 C53.0392663,11.8404505 53.5212418,12.0472859 54.024195,12.0417 C54.6763528,12.119992 55.3111838,11.7964996 55.63113,11.22285 L56.914335,11.222895 Z M56.436795,5.367915 L55.06716,5.367915 L54.03,4.009275 L53.931855,4.009275 L52.89621,5.367915 L51.51921,5.367915 L53.255055,3.221925 L54.70671,3.221925 L56.436795,5.367915 Z M52.225365,9.04614 L55.63698,9.04614 C55.6709594,8.58774065 55.5097777,8.13630761 55.1931554,7.80308864 C54.8765331,7.46986967 54.4339162,7.28585434 53.97438,7.29639 C53.5086128,7.29053021 53.060219,7.47302009 52.730915,7.80246247 C52.401611,8.13190484 52.2193095,8.58037533 52.225365,9.04614 L52.225365,9.04614 Z" id="Shape"></path>
                                <path d="M58.785,6.29223 L60.068205,6.29223 L60.068205,7.365225 L60.16782,7.365225 C60.5142223,6.57521691 61.3236643,6.09196121 62.183445,6.16185 C62.8491702,6.11179766 63.5015338,6.36718485 63.9563412,6.8559031 C64.4111485,7.34462136 64.6190446,8.01363564 64.52133,8.67405 L64.52133,13.04655 L63.188325,13.04655 L63.188325,9.00879 C63.188325,7.923345 62.71665,7.38354 61.730805,7.38354 C61.2792538,7.36250868 60.8410353,7.53972385 60.5310369,7.86872517 C60.2210386,8.19772649 60.0701776,8.64570152 60.118005,9.095205 L60.118005,13.046625 L58.785,13.046625 L58.785,6.29223 Z" id="Path"></path>
                            </g>
                        </g>
                    </g>
                </g>
            </g>
        </g>
    </g>
</svg>