<?xml version="1.0" encoding="UTF-8"?>
<svg width="203px" height="60px" viewBox="0 0 203 60" version="1.1" xmlns="http://www.w3.org/2000/svg" xmlns:xlink="http://www.w3.org/1999/xlink">
    <!-- Generator: Sketch 57 (83077) - https://sketch.com -->
    <title>google-play-badge@1x</title>
    <desc>Created with Sketch.</desc>
    <defs>
        <linearGradient x1="61.0265807%" y1="4.94692737%" x2="26.4999303%" y2="71.9158021%" id="linearGradient-1">
            <stop stop-color="#00A0FF" offset="0%"></stop>
            <stop stop-color="#00A1FF" offset="0.657445%"></stop>
            <stop stop-color="#00BEFF" offset="26.01%"></stop>
            <stop stop-color="#00D2FF" offset="51.22%"></stop>
            <stop stop-color="#00DFFF" offset="76.04%"></stop>
            <stop stop-color="#00E3FF" offset="100%"></stop>
        </linearGradient>
        <linearGradient x1="107.622047%" y1="50.0163551%" x2="-130.536417%" y2="50.0163551%" id="linearGradient-2">
            <stop stop-color="#FFE000" offset="0%"></stop>
            <stop stop-color="#FFBD00" offset="40.87%"></stop>
            <stop stop-color="#FFA500" offset="77.54%"></stop>
            <stop stop-color="#FF9C00" offset="100%"></stop>
        </linearGradient>
        <linearGradient x1="86.2529976%" y1="30.8965558%" x2="-50.1876499%" y2="136.080795%" id="linearGradient-3">
            <stop stop-color="#FF3A44" offset="0%"></stop>
            <stop stop-color="#C31162" offset="100%"></stop>
        </linearGradient>
        <linearGradient x1="-18.7699221%" y1="-11.8318633%" x2="42.1204314%" y2="35.08088%" id="linearGradient-4">
            <stop stop-color="#32A071" offset="0%"></stop>
            <stop stop-color="#2DA771" offset="6.85%"></stop>
            <stop stop-color="#15CF74" offset="47.62%"></stop>
            <stop stop-color="#06E775" offset="80.09%"></stop>
            <stop stop-color="#00F076" offset="100%"></stop>
        </linearGradient>
    </defs>
    <g id="Page-1" stroke="none" stroke-width="1" fill="none" fill-rule="evenodd">
        <g id="Banner-website" transform="translate(-262.000000, -637.000000)" fill-rule="nonzero">
            <g id="Group-4" transform="translate(40.000000, 588.000000)">
                <g id="Group-2" transform="translate(0.000000, 49.000000)">
                    <g id="google-play-badge" transform="translate(222.000000, 0.000000)">
                        <path d="M195,60 L7.5,60 C3.375,60 0,56.625 0,52.5 L0,7.5 C0,3.375 3.375,0 7.5,0 L195,0 C199.125,0 202.5,3.375 202.5,7.5 L202.5,52.5 C202.5,56.625 199.125,60 195,60 Z" id="Path" fill="#000000"></path>
                        <path d="M195,1.2 C198.48,1.2 201.3,4.02 201.3,7.5 L201.3,52.5 C201.3,55.98 198.48,58.8 195,58.8 L7.5,58.8 C4.02,58.8 1.2,55.98 1.2,52.5 L1.2,7.5 C1.2,4.02 4.02,1.2 7.5,1.2 L195,1.2 L195,1.2 Z M195,0 L7.5,0 C3.375,0 0,3.375 0,7.5 L0,52.5 C0,56.625 3.375,60 7.5,60 L195,60 C199.125,60 202.5,56.625 202.5,52.5 L202.5,7.5 C202.5,3.375 199.125,0 195,0 L195,0 Z" id="Shape" fill="#A6A6A6"></path>
                        <path d="M102.21,32.625 C98.685,32.625 95.805,35.31 95.805,39 C95.805,42.675 98.685,45.375 102.21,45.375 C105.735,45.375 108.615,42.675 108.615,39 C108.615,35.31 105.735,32.625 102.21,32.625 Z M102.21,42.87 C100.275,42.87 98.61,41.28 98.61,39 C98.61,36.705 100.275,35.13 102.21,35.13 C104.145,35.13 105.81,36.705 105.81,39 C105.81,41.28 104.13,42.87 102.21,42.87 Z M88.23,32.625 C84.705,32.625 81.825,35.31 81.825,39 C81.825,42.675 84.705,45.375 88.23,45.375 C91.755,45.375 94.635,42.675 94.635,39 C94.635,35.31 91.755,32.625 88.23,32.625 Z M88.23,42.87 C86.295,42.87 84.63,41.28 84.63,39 C84.63,36.705 86.295,35.13 88.23,35.13 C90.165,35.13 91.83,36.705 91.83,39 C91.83,41.28 90.165,42.87 88.23,42.87 Z M71.61,34.59 L71.61,37.29 L78.09,37.29 C77.895,38.805 77.385,39.93 76.62,40.695 C75.675,41.64 74.205,42.675 71.625,42.675 C67.635,42.675 64.515,39.465 64.515,35.475 C64.515,31.485 67.635,28.275 71.625,28.275 C73.77,28.275 75.345,29.115 76.5,30.21 L78.405,28.305 C76.785,26.76 74.64,25.575 71.61,25.575 C66.15,25.575 61.56,30.015 61.56,35.49 C61.56,40.95 66.15,45.405 71.61,45.405 C74.565,45.405 76.785,44.445 78.525,42.63 C80.31,40.845 80.865,38.325 80.865,36.3 C80.865,35.67 80.82,35.085 80.715,34.605 L71.61,34.605 L71.61,34.59 Z M139.575,36.69 C139.05,35.265 137.43,32.625 134.115,32.625 C130.83,32.625 128.1,35.205 128.1,39 C128.1,42.57 130.8,45.375 134.43,45.375 C137.355,45.375 139.05,43.59 139.74,42.555 L137.565,41.1 C136.845,42.165 135.855,42.87 134.43,42.87 C133.005,42.87 131.985,42.21 131.34,40.935 L139.875,37.41 L139.575,36.69 Z M130.875,38.82 C130.8,36.36 132.78,35.1 134.205,35.1 C135.315,35.1 136.26,35.655 136.575,36.45 L130.875,38.82 Z M123.945,45 L126.75,45 L126.75,26.25 L123.945,26.25 L123.945,45 Z M119.355,34.05 L119.25,34.05 C118.62,33.3 117.42,32.625 115.89,32.625 C112.695,32.625 109.77,35.43 109.77,39.03 C109.77,42.6 112.695,45.39 115.89,45.39 C117.405,45.39 118.62,44.715 119.25,43.935 L119.34,43.935 L119.34,44.85 C119.34,47.295 118.035,48.6 115.935,48.6 C114.225,48.6 113.16,47.37 112.725,46.335 L110.28,47.355 C110.985,49.05 112.845,51.12 115.935,51.12 C119.22,51.12 121.995,49.185 121.995,44.475 L121.995,33.015 L119.34,33.015 L119.34,34.05 L119.355,34.05 Z M116.13,42.87 C114.195,42.87 112.575,41.25 112.575,39.03 C112.575,36.78 114.195,35.145 116.13,35.145 C118.035,35.145 119.535,36.795 119.535,39.03 C119.55,41.25 118.05,42.87 116.13,42.87 Z M152.715,26.25 L146.01,26.25 L146.01,45 L148.815,45 L148.815,37.89 L152.73,37.89 C155.835,37.89 158.88,35.64 158.88,32.07 C158.88,28.5 155.805,26.25 152.715,26.25 Z M152.775,35.28 L148.8,35.28 L148.8,28.845 L152.775,28.845 C154.875,28.845 156.06,30.585 156.06,32.055 C156.06,33.525 154.875,35.28 152.775,35.28 Z M170.085,32.595 C168.06,32.595 165.96,33.495 165.09,35.46 L167.58,36.495 C168.105,35.46 169.095,35.115 170.13,35.115 C171.57,35.115 173.055,35.985 173.07,37.53 L173.07,37.725 C172.56,37.44 171.48,37.005 170.145,37.005 C167.46,37.005 164.745,38.475 164.745,41.22 C164.745,43.725 166.935,45.345 169.395,45.345 C171.27,45.345 172.32,44.505 172.965,43.515 L173.055,43.515 L173.055,44.97 L175.755067,44.97 L175.755067,37.785 C175.77,34.455 173.28,32.595 170.085,32.595 Z M169.74,42.87 C168.825,42.87 167.55,42.405 167.55,41.28 C167.55,39.84 169.14,39.285 170.52,39.285 C171.75,39.285 172.335,39.555 173.07,39.915 C172.86,41.64 171.36,42.87 169.74,42.87 Z M185.61,33 L182.4,41.13 L182.31,41.13 L178.98,33 L175.965,33 L180.96,44.37 L178.11,50.685 L181.035,50.685 L188.73,33 L185.61,33 Z M160.41,45 L163.215,45 L163.215,26.25 L160.41,26.25 L160.41,45 Z" id="Shape" fill="#FFFFFF"></path>
                        <path d="M15.66,11.31 C15.225,11.775 14.97,12.495 14.97,13.41 L14.97,46.59 C14.97,47.52 15.225,48.24 15.66,48.69 L15.765,48.795 L34.35,30.225 L34.35,30 L34.35,29.775 L15.765,11.205 L15.66,11.31 Z" id="Path" fill="url(#linearGradient-1)"></path>
                        <path d="M40.545,36.42 L34.35,30.225 L34.35,30 L34.35,29.775 L40.545,23.58 L40.68,23.655 L48.015,27.825 C50.115,29.01 50.115,30.96 48.015,32.16 L40.68,36.33 L40.545,36.42 Z" id="Path" fill="url(#linearGradient-2)"></path>
                        <path d="M40.68,36.33 L34.35,30 L15.66,48.69 C16.35,49.425 17.49,49.515 18.78,48.78 L40.68,36.33" id="Path" fill="url(#linearGradient-3)"></path>
                        <path d="M40.68,23.67 L18.765,11.22 C17.475,10.485 16.335,10.575 15.645,11.31 L34.35,30 L40.68,23.67 Z" id="Path" fill="url(#linearGradient-4)"></path>
                        <g id="Group" transform="translate(13.500000, 36.000000)" fill="#000000">
                            <path d="M27.045,0.195 L5.265,12.57 C4.05,13.26 2.955,13.215 2.265,12.585 L2.265,12.585 L2.16,12.69 L2.16,12.69 L2.265,12.795 L2.265,12.795 C2.97,13.425 4.05,13.47 5.265,12.78 L27.18,0.33 L27.045,0.195 Z" id="Path" opacity="0.2"></path>
                            <path d="M2.16,12.48 C1.725,12.015 1.47,11.295 1.47,10.38 L1.47,10.605 C1.47,11.535 1.725,12.255 2.16,12.705 L2.265,12.6 L2.16,12.48 Z" id="Path" opacity="0.12"></path>
                        </g>
                        <path d="M48.015,31.95 L40.53,36.195 L40.665,36.33 L48,32.16 C49.05,31.56 49.575,30.78 49.575,30 L49.575,30 C49.5,30.705 48.975,31.41 48.015,31.95 Z" id="Path" fill="#000000" opacity="0.12"></path>
                        <path d="M18.765,11.43 L48.015,28.05 C48.96,28.59 49.5,29.28 49.59,30 L49.59,30 C49.59,29.22 49.065,28.425 48.015,27.84 L18.765,11.22 C16.665,10.035 14.955,11.025 14.955,13.425 L14.955,13.65 C14.955,11.235 16.68,10.245 18.765,11.43 Z" id="Path" fill="#FFFFFF" opacity="0.25"></path>
                        <g id="Group" transform="translate(61.500000, 7.500000)" fill="#FFFFFF" stroke="#FFFFFF" stroke-width="0.2">
                            <polygon id="Path" points="4.035 11.55 2.925 11.55 2.925 4.02 0.525 4.02 0.525 2.97 6.435 2.97 6.435 4.02 4.035 4.02 4.035 11.55"></polygon>
                            <path d="M8.16,9 L7.32,11.55 L6.24,11.55 L8.985,3.465 L10.245,3.465 L13.005,11.55 L11.895,11.55 L11.025,9 L8.16,9 Z M10.8,8.19 L10.005,5.865 C9.825,5.34 9.705,4.86 9.585,4.395 L9.555,4.395 C9.435,4.875 9.3,5.37 9.15,5.865 L8.355,8.205 L10.8,8.205 L10.8,8.19 Z M9.345,2.88 C9.54,2.37 9.975,2.265 9.975,1.875 C9.975,1.65 9.81,1.5 9.585,1.5 C9.33,1.5 9.135,1.71 8.985,1.92 L8.595,1.68 C8.805,1.245 9.165,0.87 9.78,0.87 C10.335,0.87 10.77,1.245 10.77,1.74 C10.77,2.355 10.23,2.49 9.9,3.03 L9.345,2.88 Z" id="Shape"></path>
                            <polygon id="Path" points="14.205 11.55 14.205 2.955 15.315 2.955 15.315 11.55"></polygon>
                            <polygon id="Path" points="19.68 11.55 19.68 2.955 21.03 2.955 25.2 9.645 25.245 9.645 25.2 7.995 25.2 2.97 26.31 2.97 26.31 11.565 25.155 11.565 20.79 4.56 20.745 4.56 20.79 6.21 20.79 11.565 19.68 11.565"></polygon>
                            <path d="M35.22,7.425 C35.22,10.2 33.525,11.685 31.47,11.685 C29.34,11.685 27.84,10.035 27.84,7.59 C27.84,5.025 29.43,3.345 31.59,3.345 C33.795,3.33 35.22,5.025 35.22,7.425 Z M28.95,7.545 C28.95,9.27 29.88,10.815 31.53,10.815 C33.18,10.815 34.125,9.285 34.125,7.455 C34.125,5.85 33.285,4.17 31.545,4.17 C29.805,4.185 28.95,5.775 28.95,7.545 Z M31.92,1.62 L33.18,3 L32.295,3 L31.53,2.175 L31.5,2.175 L30.75,3 L29.88,3 L31.11,1.635 L31.92,1.635 L31.92,1.62 Z M30.93,13.11 C30.93,12.795 31.2,12.51 31.545,12.51 C31.875,12.51 32.115,12.795 32.115,13.11 C32.115,13.425 31.86,13.725 31.53,13.725 C31.2,13.71 30.93,13.41 30.93,13.11 Z" id="Shape"></path>
                            <polygon id="Path" points="36.78 11.55 36.78 2.955 37.89 2.955 37.89 11.55"></polygon>
                            <path d="M42.255,11.55 L42.255,2.955 L44.88,2.955 C46.2,2.955 47.25,3.36 48.045,4.155 C48.84,4.95 49.23,5.985 49.23,7.26 C49.23,8.535 48.84,9.57 48.045,10.365 C47.25,11.16 46.2,11.565 44.88,11.565 L42.255,11.565 L42.255,11.55 Z M43.35,10.485 L44.88,10.485 C45.87,10.485 46.665,10.2 47.235,9.63 C47.82,9.06 48.105,8.265 48.105,7.245 C48.105,6.225 47.82,5.43 47.235,4.86 C46.65,4.29 45.87,4.005 44.88,4.005 L43.35,4.005 L43.35,10.485 Z" id="Shape"></path>
                            <path d="M53.82,11.745 C52.875,11.745 52.11,11.43 51.525,10.815 C50.94,10.185 50.64,9.375 50.64,8.37 L50.64,2.97 L51.75,2.97 L51.75,8.415 C51.75,9.09 51.93,9.645 52.29,10.065 C52.65,10.485 53.16,10.695 53.835,10.695 C54.51,10.695 55.02,10.485 55.38,10.065 C55.74,9.645 55.92,9.09 55.92,8.415 L55.92,2.97 L57,2.97 L57,8.37 C57,9.39 56.715,10.2 56.145,10.83 C55.575,11.43 54.795,11.745 53.82,11.745 Z" id="Path"></path>
                            <polygon id="Path" points="58.89 11.55 58.89 2.955 60.24 2.955 64.41 9.645 64.455 9.645 64.41 7.995 64.41 2.97 65.52 2.97 65.52 11.565 64.35 11.565 59.985 4.56 59.94 4.56 59.985 6.21 59.985 11.565 58.89 11.565"></polygon>
                            <path d="M75.75,7.605 C75.75,8.805 75.39,9.765 74.685,10.47 C73.875,11.325 72.825,11.745 71.535,11.745 C70.29,11.745 69.24,11.31 68.37,10.455 C67.5,9.6 67.065,8.535 67.065,7.26 C67.065,5.985 67.5,4.92 68.37,4.065 C69.24,3.21 70.29,2.775 71.535,2.775 C72.15,2.775 72.735,2.895 73.305,3.135 C73.86,3.375 74.31,3.69 74.655,4.095 L73.905,4.845 C73.335,4.17 72.555,3.825 71.55,3.825 C70.65,3.825 69.87,4.14 69.21,4.785 C68.55,5.415 68.22,6.255 68.22,7.26 C68.22,8.28 68.55,9.105 69.21,9.735 C69.87,10.365 70.65,10.695 71.55,10.695 C72.51,10.695 73.305,10.38 73.95,9.735 C74.37,9.315 74.61,8.745 74.67,7.995 L71.55,7.995 L71.55,6.96 L75.72,6.96 C75.735,7.17 75.75,7.395 75.75,7.605 Z" id="Path"></path>
                            <polygon id="Path" points="82.665 11.55 81.555 11.55 81.555 4.02 79.155 4.02 79.155 2.97 85.065 2.97 85.065 4.02 82.665 4.02 82.665 11.55"></polygon>
                            <path d="M86.295,11.55 L86.295,2.955 L89.22,2.955 C89.955,2.955 90.585,3.195 91.11,3.675 C91.635,4.155 91.905,4.77 91.905,5.505 C91.905,6.105 91.71,6.63 91.32,7.095 C90.93,7.56 90.435,7.845 89.85,7.965 L89.82,7.995 L92.235,11.49 L92.235,11.535 L90.93,11.535 L88.62,8.055 L87.39,8.055 L87.39,11.535 L86.295,11.535 L86.295,11.55 Z M87.405,7.035 L89.175,7.035 C89.61,7.035 89.985,6.885 90.315,6.6 C90.63,6.315 90.795,5.955 90.795,5.505 C90.795,5.13 90.66,4.785 90.375,4.47 C90.09,4.155 89.73,4.005 89.265,4.005 L87.42,4.005 L87.42,7.035 L87.405,7.035 Z" id="Shape"></path>
                            <path d="M98.52,4.005 L94.605,4.005 L94.605,6.735 L98.13,6.735 L98.13,7.77 L94.605,7.77 L94.605,10.5 L98.52,10.5 L98.52,11.55 L93.51,11.55 L93.51,2.955 L98.52,2.955 L98.52,4.005 Z M94.29,2.205 L94.29,2.145 L95.52,0.735 L96.48,0.735 L97.71,2.145 L97.71,2.205 L96.645,2.205 L96.045,1.485 L95.955,1.485 L95.355,2.205 L94.29,2.205 Z" id="Shape"></path>
                            <polygon id="Path" points="100.125 11.55 100.125 2.955 101.475 2.955 105.645 9.645 105.69 9.645 105.645 7.995 105.645 2.97 106.755 2.97 106.755 11.565 105.6 11.565 101.235 4.56 101.19 4.56 101.235 6.21 101.235 11.565 100.125 11.565"></polygon>
                        </g>
                    </g>
                </g>
            </g>
        </g>
    </g>
</svg>